PathFileType	4	(X/Y/Z)	C:\Users\Basilio\Documents\Thesis Gigler\squatting_fais\c3dfiles\039\SJ_pre4\markers_experimental.trc
DataRate	CameraRate	NumFrames	NumMarkers	Units	OrigDataRate	OrigDataStartFrame	OrigNumFrames
200.000000	200.000000	4	63	mm	200.000000	223	1788
Frame#	Time	FHD			LBHD			RBHD			C7			T10			CLAV			LSHO			LUUPA			LMUPA			LDUPA			LLEP			LMEP			LRAD			LUL			LRFIN			RSHO			RUPA1			RMUPA			RDUPA			RLEP			RMEP			RRAD			RUL			RUFIN			LASI			RASI			USACR			LSACR			RSACR			LTHI1			LTHI2			LTHI3			LTHI4			LLFC			LMFC			LTIB1			LTIB2			LTIB3			LTIB4			LLMAL			LMMAL			LHEE			LMT1			LMT2			LMT5			RTHI			RTHI2			RTHI3			RTHI4			RLFC			RMFC			RTIB1			RTIB2			RTIB3			RTIB4			RLMAL			RMMAL			RHEE			RMT1			RMT2			RMT5			*61			*62			
		X1	Y1	Z1	X2	Y2	Z2	X3	Y3	Z3	X4	Y4	Z4	X5	Y5	Z5	X6	Y6	Z6	X7	Y7	Z7	X8	Y8	Z8	X9	Y9	Z9	X10	Y10	Z10	X11	Y11	Z11	X12	Y12	Z12	X13	Y13	Z13	X14	Y14	Z14	X15	Y15	Z15	X16	Y16	Z16	X17	Y17	Z17	X18	Y18	Z18	X19	Y19	Z19	X20	Y20	Z20	X21	Y21	Z21	X22	Y22	Z22	X23	Y23	Z23	X24	Y24	Z24	X25	Y25	Z25	X26	Y26	Z26	X27	Y27	Z27	X28	Y28	Z28	X29	Y29	Z29	X30	Y30	Z30	X31	Y31	Z31	X32	Y32	Z32	X33	Y33	Z33	X34	Y34	Z34	X35	Y35	Z35	X36	Y36	Z36	X37	Y37	Z37	X38	Y38	Z38	X39	Y39	Z39	X40	Y40	Z40	X41	Y41	Z41	X42	Y42	Z42	X43	Y43	Z43	X44	Y44	Z44	X45	Y45	Z45	X46	Y46	Z46	X47	Y47	Z47	X48	Y48	Z48	X49	Y49	Z49	X50	Y50	Z50	X51	Y51	Z51	X52	Y52	Z52	X53	Y53	Z53	X54	Y54	Z54	X55	Y55	Z55	X56	Y56	Z56	X57	Y57	Z57	X58	Y58	Z58	X59	Y59	Z59	X60	Y60	Z60	X61	Y61	Z61	X62	Y62	Z62	X63	Y63	Z63	

224	1.115	-197.9865722656251	1767.609619140625	-803.9957275390627	-291.0424499511719	1717.356811523438	-973.912536621094	-323.2975769042969	1730.611450195313	-836.877868652344	-360.0672302246094	1569.532958984375	-891.9499511718752	-375.3443298339844	1252.65869140625	-897.0583496093752	-218.226303100586	1495.671508789063	-891.9439697265627	-278.6490783691407	1545.059814453125	-1080.940063476563	-373.1517639160157	1403.161499023438	-1237.388305664063	-335.8211669921876	1368.907592773438	-1241.817138671875	-377.2091674804688	1347.100708007813	-1279.812866210938	-375.0183410644532	1281.319091796875	-1307.769653320313	-448.726531982422	1264.561279296875	-1260.55615234375	-352.4494934082032	1043.584228515625	-1136.119018554688	-305.0246582031251	1026.167236328125	-1193.724975585938	-296.9300537109376	1055.449951171875	-1093.54248046875	-250.5877380371094	1539.270751953125	-698.8647460937501	-374.2174377441407	1418.864624023438	-550.7547607421876	-344.2996215820313	1380.545776367188	-537.4780883789064	-394.5616149902345	1367.782104492188	-507.2291870117189	-392.9399414062501	1303.008422851563	-477.3067016601564	-466.1646118164064	1290.494995117188	-527.6372070312501	-331.1255798339844	1099.967895507813	-684.9655761718751	-321.3819580078126	1052.183959960938	-625.7178955078126	-272.7341613769532	1075.356689453125	-725.6365356445314	-218.2400817871094	1058.94287109375	-1014.932922363281	-216.5587615966797	1044.989135742188	-793.5601806640627	-394.6379394531251	1127.203247070313	-895.8796997070315	-402.2993774414064	1097.415405273438	-925.3669433593752	-402.201629638672	1096.200073242188	-866.515075683594	-288.6604003906251	788.0469360351565	-1099.330688476563	-252.8751831054688	711.1083374023439	-1104.365356445313	-204.7532958984376	715.7809448242189	-1096.707763671875	-277.4083251953126	656.9577026367189	-1090.965087890625	-272.8616027832032	535.1779785156251	-1092.0048828125	-234.5038299560547	506.2170410156251	-981.0867309570315	-221.335433959961	385.3268432617189	-1080.200805664063	-293.9559936523438	349.6173095703126	-1116.191528320313	-252.8205261230469	342.5568237304688	-1103.47119140625	-252.9596710205079	260.2987670898438	-1068.486572265625	-329.3894348144532	99.96753692626956	-1099.440307617188	-301.6432495117188	94.74880218505861	-1016.433898925781	-391.2199707031251	41.23181533813477	-1055.161254882813	-156.3749389648438	56.18233108520509	-1072.706420898438	-169.1925659179688	55.10242462158205	-1114.822631835938	-220.2825775146485	31.61814498901368	-1160.118286132813	-268.5265197753907	786.9676513671877	-705.5177001953126	-224.8463134765626	737.0153198242189	-696.9063720703126	-193.0314331054688	742.7833251953126	-702.6553344726564	-244.6564331054688	653.7178344726564	-699.9577636718751	-264.9460449218751	514.1384277343751	-715.0969238281251	-218.1154785156251	493.8236083984376	-821.9925537109377	-235.4699707031251	303.3907470703126	-704.3343505859376	-324.7596740722657	242.9637298583985	-698.1708984375001	-279.7397766113282	232.4229125976563	-691.8753051757814	-261.3348083496094	180.0893096923828	-716.6381225585939	-333.4811096191407	92.2873001098633	-691.1734619140626	-294.2280883789063	98.66032409667972	-773.2378540039065	-392.889373779297	40.50257873535157	-744.3743286132814	-160.5198516845703	51.671688079834	-710.8344116210939	-172.5586395263672	56.92555999755861	-666.5180664062501	-232.2896423339844	31.00947189331055	-622.1359252929689	nan	nan	nan	nan	nan	nan	
225	1.12	-197.8580474853516	1767.545654296875	-803.9302978515627	-290.8708190917969	1717.350341796875	-973.8662109375002	-323.1556701660157	1730.515747070313	-836.8529052734377	-360.0095825195313	1569.555419921875	-891.9547119140627	-375.3685302734376	1252.646484375	-897.1611328125002	-218.1770477294922	1495.530151367188	-891.943542480469	-278.5161437988282	1545.024047851563	-1080.92724609375	-373.1207885742188	1403.199340820313	-1237.431396484375	-335.8473815917969	1368.991455078125	-1241.801879882813	-377.1657714843751	1347.154296875	-1279.81689453125	-374.8890686035157	1281.408081054688	-1307.844360351563	-448.9368286132814	1264.942749023438	-1260.51513671875	-352.4353027343751	1043.6044921875	-1136.224487304688	-305.1069946289063	1026.201049804688	-1193.782470703125	-296.9737548828126	1055.434448242188	-1093.637573242188	-250.5929870605469	1539.192626953125	-698.8934326171876	-374.3253173828126	1418.8330078125	-550.8009643554689	-344.3890686035157	1380.505493164063	-537.5564575195314	-394.6352539062501	1367.77197265625	-507.2956542968751	-393.0733032226564	1302.941040039063	-477.4130859375001	-466.2971496582032	1290.432495117188	-527.7074584960939	-331.3809509277344	1099.943725585938	-685.0593261718751	-321.5592041015626	1052.0869140625	-625.7408447265626	-272.8653564453126	1075.343505859375	-725.7152709960939	-218.1742858886719	1058.996459960938	-1015.010314941406	-216.6233673095704	1044.96435546875	-793.6164550781252	-394.6234130859376	1127.228149414063	-895.9416503906252	-402.3840637207032	1097.425903320313	-925.4729003906252	-402.3476562500001	1096.261962890625	-866.6408691406252	-288.6080322265626	788.061950683594	-1099.373291015625	-252.9303894042969	711.1519165039064	-1104.381103515625	-204.8024291992188	715.7998657226564	-1096.7783203125	-277.4262084960938	656.9663085937501	-1090.967651367188	-272.8916015625001	535.1901245117189	-1092.03466796875	-234.9815979003907	505.9801330566407	-981.353698730469	-221.3477783203126	385.334197998047	-1080.215209960938	-294.0481872558594	349.6557006835938	-1116.265625	-252.6173553466797	342.4774169921876	-1103.640869140625	-252.9757385253907	260.2899169921876	-1068.530029296875	-329.4053955078126	99.95863342285159	-1099.463500976563	-301.6275024414063	94.77222442626955	-1016.424926757813	-391.2154235839845	41.24690246582032	-1055.144775390625	-156.350082397461	56.12368011474611	-1072.760620117188	-169.3019561767578	55.15965270996095	-1114.882446289063	-220.2854156494141	31.59655189514161	-1160.117431640625	-268.6286926269532	786.9980468750002	-705.5252075195314	-224.9019012451172	737.0671386718751	-696.9054565429689	-193.1662292480469	742.7973022460939	-702.6292114257814	-244.7349853515626	653.7352905273439	-699.9647827148439	-264.9901428222657	514.1408691406251	-715.1308593750001	-218.0675201416016	493.8239746093751	-821.989196777344	-235.4907989501954	303.4242248535157	-704.3141479492189	-324.8380126953126	243.062240600586	-698.1646118164064	-279.7541198730469	232.3996276855469	-691.8610839843751	-261.3465576171876	180.090576171875	-716.6268310546876	-333.3909301757813	92.17029571533205	-691.3960571289064	-294.1365966796876	98.6553649902344	-773.1678466796877	-392.8879394531251	40.5297966003418	-744.3833007812501	-160.5289001464844	51.64782714843751	-710.8592529296876	-172.5396270751953	56.93743896484376	-666.4707641601564	-232.2810974121094	31.03021049499512	-622.1308593750001	nan	nan	nan	nan	nan	nan	
226	1.125	-197.6898498535157	1767.444091796875	-803.8657226562502	-290.7274169921876	1717.338012695313	-973.856140136719	-323.0729064941407	1730.507690429688	-836.7943115234377	-359.9223327636719	1569.560668945313	-892.007507324219	-375.4209289550782	1252.65380859375	-897.222595214844	-218.1282348632813	1495.487426757813	-891.9510498046877	-278.3990173339844	1545.014404296875	-1080.928833007813	-372.9578857421876	1403.2939453125	-1237.489990234375	-335.9530639648438	1368.971069335938	-1241.754028320313	-377.0976257324219	1347.1689453125	-1279.852172851563	-374.7621154785157	1281.479736328125	-1307.8779296875	-448.5135803222657	1264.717895507813	-1260.651733398438	-352.5135803222657	1043.640625	-1136.297973632813	-305.0463256835938	1026.25439453125	-1193.851440429688	-296.9858703613282	1055.45751953125	-1093.694091796875	-250.5756378173829	1539.129028320313	-698.9322509765626	-374.3919067382813	1418.787841796875	-550.8904418945314	-344.4601135253907	1380.428100585938	-537.6035766601564	-394.7150268554689	1367.741943359375	-507.3632812500001	-393.1853942871095	1302.932250976563	-477.4961853027345	-466.3564758300782	1290.415771484375	-527.8040771484376	-331.5806274414063	1099.922485351563	-685.1378784179689	-321.7226867675782	1052.059692382813	-625.8958129882814	-272.9552001953126	1075.299926757813	-725.7186889648439	-218.2794647216797	1058.987548828125	-1015.051147460938	-216.7449951171876	1044.93310546875	-793.683776855469	-394.7023315429689	1127.277709960938	-896.0462036132815	-402.4346618652345	1097.40283203125	-925.516296386719	-402.4139404296876	1096.299682617188	-866.726989746094	-288.7116699218751	788.0184326171877	-1099.45556640625	-252.9100646972657	711.1016235351564	-1104.441650390625	-204.7886047363282	715.8183593750001	-1096.837524414063	-277.4074707031251	656.9368896484376	-1091.062255859375	-272.9435119628907	535.1563720703126	-1092.077270507813	-234.9891052246094	506.0374755859376	-981.355407714844	-221.3612365722657	385.3374328613282	-1080.220947265625	-294.2857666015626	349.2478332519532	-1116.3525390625	-252.8367462158204	342.5443420410157	-1103.509887695313	-252.9712982177735	260.2891845703126	-1068.53515625	-329.3871459960938	99.93507385253909	-1099.463012695313	-301.6600952148438	94.7852020263672	-1016.4521484375	-391.2248535156251	41.2297706604004	-1055.143188476563	-156.4373168945313	56.23266601562501	-1072.767456054688	-169.3057403564453	55.1533660888672	-1114.856689453125	-220.2778472900391	31.60799980163575	-1160.11767578125	-268.7808837890626	786.9586181640627	-705.6226196289064	-224.9677734375001	737.0202636718751	-696.9063720703126	-193.2383728027344	742.7921752929689	-702.6458740234376	-244.828109741211	653.7251586914064	-699.9689331054689	-265.0331115722657	514.1641235351564	-715.1589965820314	-218.1644897460938	493.814422607422	-822.0235595703127	-235.5636291503907	303.4347534179688	-704.2728881835939	-324.8369445800782	242.9444732666016	-698.1791992187501	-279.7927856445313	232.4140014648438	-691.8969726562501	-261.3425292968751	180.1023712158203	-716.6401977539064	-333.5054626464844	92.26766967773439	-691.2216796875001	-294.2351989746094	98.66335296630862	-773.226013183594	-392.9068298339845	40.56594848632813	-744.4000854492189	-160.5227203369141	51.64405822753908	-710.8566284179689	-172.5718231201172	56.93453598022462	-666.4560546875001	-232.2536315917969	31.03538894653321	-622.1640014648439	nan	nan	nan	nan	nan	nan	
227	1.13	-197.5735626220704	1767.376342773438	-803.818298339844	-290.5818481445313	1717.410522460938	-973.8570556640627	-322.9615173339844	1730.485107421875	-836.774841308594	-359.7646484375001	1569.537109375	-892.0700683593752	-375.4772949218751	1252.691528320313	-897.3511352539065	-218.1168518066407	1495.1298828125	-891.8881835937502	-278.2646484375001	1545.002075195313	-1080.941040039063	-372.9081115722657	1403.338500976563	-1237.544555664063	-335.7263183593751	1368.950561523438	-1241.840087890625	-377.0604553222657	1347.214965820313	-1279.92724609375	-374.8099975585938	1281.505126953125	-1307.918579101563	-448.7988281250001	1265.06103515625	-1260.672241210938	-352.4671325683594	1043.665405273438	-1136.401489257813	-305.1023559570313	1026.219360351563	-1193.879638671875	-296.9981079101563	1055.487915039063	-1093.7490234375	-250.4838256835938	1538.949462890625	-699.2085571289064	-374.4604492187501	1418.75927734375	-550.9025268554689	-344.5827331542969	1380.32568359375	-537.7121582031251	-394.8426513671876	1367.674194335938	-507.4399719238282	-393.261444091797	1302.923217773438	-477.5970764160157	-466.5308532714845	1290.404296875	-527.9129028320314	-331.6908569335938	1099.832153320313	-685.2075805664064	-321.9051513671876	1052.004638671875	-625.9885253906251	-273.0643310546876	1075.272827148438	-725.7739257812501	-218.2502746582032	1058.96142578125	-1015.102233886719	-216.8355407714844	1044.904907226563	-793.7706298828127	-394.748992919922	1127.312133789063	-896.136657714844	-402.4703674316407	1097.478271484375	-925.6463623046877	-402.4674682617189	1096.303466796875	-866.8460083007815	-288.6940002441407	788.041931152344	-1099.5	-253.0230255126954	711.1594238281251	-1104.481567382813	-204.8433685302735	715.7854614257814	-1096.832885742188	-277.4165039062501	656.9317016601564	-1091.08837890625	-272.8957214355469	535.1492309570314	-1092.130249023438	-234.5779724121094	506.2107849121095	-981.1485595703127	-221.4162750244141	385.3241577148439	-1080.22021484375	-294.2846679687501	349.2345581054688	-1116.362060546875	-252.8139038085938	342.5764465332032	-1103.551147460938	-252.9839935302735	260.2746582031251	-1068.529296875	-329.4281616210938	99.92153167724612	-1099.443237304688	-301.6375427246094	94.72873687744142	-1016.444580078125	-391.2104797363282	41.23018646240235	-1055.118896484375	-156.4859008789063	56.20935440063478	-1072.757202148438	-169.2596588134766	55.11104583740236	-1114.829467773438	-220.3226776123047	31.59980010986329	-1160.12255859375	-268.9258117675782	786.9505615234377	-705.6695556640626	-225.1103668212891	737.0590820312501	-696.8690185546876	-193.3486022949219	742.8302612304689	-702.6480102539064	-244.9060211181641	653.7265625000001	-700.0025024414064	-265.1732788085938	514.1228637695314	-715.2441406250001	-218.1702880859376	493.8300170898439	-822.050231933594	-235.588851928711	303.4105224609376	-704.3067626953126	-324.8914184570313	242.9460144042969	-698.2154541015626	-279.7796936035157	232.3877716064454	-691.9151611328126	-261.3817443847657	180.1036224365235	-716.6270141601564	-333.5614624023438	92.23432922363283	-691.2376098632814	-294.2656860351563	98.66755676269534	-773.218933105469	-392.9065856933595	40.5273551940918	-744.3789062500001	-160.4825286865235	51.64796829223634	-710.8604736328126	-172.5686187744141	56.91244125366212	-666.4979248046876	-232.3043670654297	30.99724960327149	-622.1198730468751	nan	nan	nan	nan	nan	nan	
